<svg width="264" height="264" viewBox="0 0 264 264" fill="none" xmlns="http://www.w3.org/2000/svg">
<path d="M107.983 1.53448C90.2543 4.17641 71.2081 11.7974 55.3025 22.4667C45.5768 28.9699 28.6581 45.9392 22.1743 55.694C-7.3068 99.8956 -7.40811 155.884 21.9716 199.578C28.8607 209.942 42.9427 224.473 52.9724 231.687C66.9531 241.848 84.5809 249.571 102.107 253.432C113.555 255.871 134.83 256.379 146.886 254.448C152.357 253.534 157.321 252.518 157.828 252.213C158.233 251.908 157.321 249.978 155.802 247.945C152.154 243.373 147.19 233.516 145.468 227.623L144.151 223.355L141.314 228.232C139.795 230.874 137.262 234.532 135.54 236.361C132.906 239.105 131.791 239.613 127.637 239.613C123.382 239.613 122.471 239.207 119.026 235.549C115.582 231.89 109.3 220.408 107.578 214.515C106.97 212.482 107.274 212.279 114.265 211.67C118.317 211.263 126.32 211.161 131.994 211.365L142.327 211.67L142.631 205.674C142.834 201.508 142.53 199.578 141.618 199.171C140.909 198.968 131.892 198.866 121.66 199.171L103.019 199.578L101.5 192.871C98.2577 178.544 94.104 139.525 95.5224 136.679C95.725 136.273 110.314 135.968 127.941 135.968H159.955L159.246 149.178C158.841 156.494 158.233 163.2 157.929 164.216C157.524 165.131 159.55 163.81 162.285 161.27C165.021 158.729 168.567 155.783 170.086 154.868C172.72 153.039 172.822 152.633 172.822 144.504V135.968H205.747H238.673V138.204C238.571 139.525 238.166 142.471 237.761 144.91C236.95 149.178 236.95 149.279 240.699 151.21C242.725 152.226 245.967 154.36 247.689 155.884C249.513 157.307 251.134 158.323 251.438 158.12C251.64 157.815 252.552 153.75 253.363 149.076C255.287 138 255.287 117.271 253.363 105.891C245.055 58.336 209.799 18.707 163.704 5.29415C145.367 -0.0913207 126.624 -1.41229 107.983 1.53448ZM136.35 20.7393C140.605 25.4135 146.988 37.7086 148.102 43.5005L148.811 46.5489L140.301 46.7521C127.941 47.1586 107.578 46.4473 106.768 45.6344C105.755 44.7199 111.428 31.2054 115.48 24.8038C119.837 17.9957 122.572 16.0651 127.84 16.0651C131.487 16.0651 132.602 16.6748 136.35 20.7393ZM101.601 20.3328C101.196 21.0441 99.3721 25.7183 97.3459 30.7989C95.3197 35.778 93.2935 40.9602 92.787 42.1796C91.8752 44.3134 91.7739 44.3134 85.4927 42.8908C75.2605 40.5538 64.4203 37.2005 64.4203 36.286C64.4203 34.457 82.1495 25.4135 92.8883 21.7554C101.5 18.8086 102.31 18.6054 101.601 20.3328ZM162.285 21.7554C166.743 23.2796 172.112 25.3119 174.341 26.4296C181.129 29.7828 191.057 35.778 191.057 36.4892C191.057 37.3021 178.596 40.9602 169.58 42.7892L162.893 44.2118L160.158 36.4892C158.638 32.2215 156.308 26.6328 154.991 23.8893C153.573 21.2473 152.965 19.1135 153.471 19.1135C153.978 19.1135 157.929 20.3328 162.285 21.7554ZM63.4072 51.0199C68.6753 52.9505 76.5775 55.186 80.9338 56.2021C88.6333 57.9295 88.8359 58.0311 88.3294 60.6731C88.0255 62.0956 87.1137 67.1763 86.3032 71.9521C84.9862 79.573 84.277 86.1779 82.0482 113.308L81.4403 119.71H49.0213H16.5009L17.2101 113.105C18.7297 98.3714 26.4293 78.2521 35.6484 65.0424C43.2466 54.1699 50.4396 46.3457 52.1619 47.057C53.0737 47.4634 58.1391 49.1908 63.4072 51.0199ZM209.901 52.8489C220.032 63.9247 228.137 77.744 233.202 92.6811C235.532 99.4891 238.673 113.918 238.673 117.779C238.673 119.608 237.356 119.71 205.95 119.71H173.125L172.416 105.687C171.91 93.9004 169.884 76.9311 167.148 61.6892L166.54 57.9295L173.835 56.3037C182.243 54.3731 198.959 49.0892 201.188 47.565C203.518 46.0408 203.62 46.1425 209.901 52.8489ZM154.788 69.1069C156.815 79.1666 159.651 105.078 159.651 113.613V119.71H127.435H95.3197L95.6237 111.784C96.0289 100.708 98.5616 77.9472 100.487 68.3956L102.107 60.2666L127.536 60.4698L153.066 60.6731L154.788 69.1069ZM82.0482 142.268C82.2508 145.824 83.0613 154.766 83.6691 162.184C84.5809 173.87 87.7215 195.005 89.3425 200.086C89.7477 201.407 88.8359 201.915 84.9862 202.524C79.0089 203.337 62.3941 207.503 56.6195 209.536L52.3645 211.06L47.0964 205.268C30.4816 187.181 19.4389 163.708 17.1088 142.065L16.5009 135.968H49.0213H81.4403L82.0482 142.268ZM94.8132 218.478C95.421 220.916 97.3459 225.794 98.9669 229.35C100.588 232.907 101.702 236.057 101.398 236.361C99.676 238.089 65.4334 222.745 65.4334 220.205C65.4334 219.799 69.3845 218.579 74.3487 217.36C86.3032 214.515 86.8097 214.413 90.3556 214.311C93.1922 214.21 93.5975 214.616 94.8132 218.478Z" fill="white"/>
<path d="M198.453 153.242C161.475 159.949 141.618 201 159.246 234.634C168.465 252.213 188.018 264 207.773 264C223.476 264 236.14 258.615 247.385 247.336C257.922 236.768 264 222.44 264 208.113C264 190.229 252.349 169.703 237.254 160.863C225.604 154.055 210.61 151.108 198.453 153.242ZM223.578 169.399C234.316 173.565 236.039 170.72 203.214 203.54C179.711 227.115 173.632 232.703 172.822 231.484C172.214 230.671 170.795 227.419 169.58 224.371C167.655 219.798 167.249 216.852 167.249 208.113C167.249 198.561 167.553 196.834 169.985 191.55C175.354 180.068 183.966 172.244 195.717 168.382C203.518 165.842 215.473 166.249 223.578 169.399ZM246.98 192.77C248.804 197.24 249.209 200.594 249.31 208.621C249.31 217.969 249.006 219.29 246.068 225.692C236.039 246.827 211.927 255.769 190.449 246.218C187.207 244.795 184.371 243.373 184.067 243.068C183.763 242.865 196.731 229.35 212.839 213.194C245.562 180.271 242.725 181.999 246.98 192.77Z" fill="white"/>
</svg>
