<svg width="11" height="12" viewBox="0 0 11 12" fill="none" xmlns="http://www.w3.org/2000/svg">
<path d="M3.8125 4.58929C3.8125 4.96836 3.89846 5.32671 4.04502 5.65141L2 7.69643C2 7.69643 2 8.04443 2 8.47321C2 8.902 2.464 9.25 3.03571 9.25H4.07143V8.21429H5.10714V7.17857C5.10714 7.17857 6.31323 7.17857 6.40179 7.17857C7.83211 7.17857 8.99107 6.01961 8.99107 4.58929C8.99107 3.15896 7.83211 2 6.40179 2C4.97146 2 3.8125 3.15896 3.8125 4.58929ZM6.40179 5.625C5.83007 5.625 5.36607 5.161 5.36607 4.58929C5.36607 4.01705 5.83007 3.55254 6.40179 3.55254C6.97402 3.55254 7.4375 4.01654 7.4375 4.58929C7.4375 5.161 6.97402 5.625 6.40179 5.625Z" fill="white" fill-opacity="0.8"/>
</svg>
