<svg width="36" height="36" viewBox="0 0 36 36" fill="none" xmlns="http://www.w3.org/2000/svg">
<path d="M18 3C14.0218 3 10.2064 4.58035 7.3934 7.3934C4.58035 10.2064 3 14.0218 3 18C3 21.9782 4.58035 25.7936 7.3934 28.6066C10.2064 31.4196 14.0218 33 18 33C21.9782 33 25.7936 31.4196 28.6066 28.6066C31.4196 25.7936 33 21.9782 33 18C33 14.0218 31.4196 10.2064 28.6066 7.3934C25.7936 4.58035 21.9782 3 18 3Z" fill="#29B6F6"/>
<path d="M25.4625 11.25L22.653 25.5945C22.653 25.5945 22.5322 26.25 21.7192 26.25C21.2872 26.25 21.0645 26.0445 21.0645 26.0445L14.979 20.9948L12.0015 19.494L8.18025 18.4778C8.18025 18.4778 7.5 18.2813 7.5 17.7188C7.5 17.25 8.19975 17.0265 8.19975 17.0265L24.1868 10.6755C24.1868 10.6755 24.675 10.4993 25.0312 10.5C25.2502 10.5 25.5 10.5938 25.5 10.875C25.5 11.0625 25.4625 11.25 25.4625 11.25Z" fill="white"/>
<path d="M17.25 22.8788L14.6805 25.4093C14.6805 25.4093 14.5687 25.4955 14.4195 25.4993C14.3677 25.5008 14.3122 25.4925 14.2552 25.467L14.9782 20.9933L17.25 22.8788Z" fill="#B0BEC5"/>
<path d="M22.4228 13.647C22.296 13.482 22.062 13.452 21.897 13.5773L12 19.5C12 19.5 13.5795 23.919 13.8203 24.684C14.0618 25.4498 14.2553 25.4678 14.2553 25.4678L14.9783 20.994L22.3523 14.172C22.5173 14.0468 22.548 13.812 22.4228 13.647Z" fill="#CFD8DC"/>
</svg>
